<svg xmlns="http://www.w3.org/2000/svg" xmlns:xlink="http://www.w3.org/1999/xlink" viewBox="0 0 64 64" id="contract"><defs><linearGradient id="a" x1="-.669" x2="64.068" y1="76.53" y2="17.188" gradientUnits="userSpaceOnUse"><stop offset="0" stop-color="#fff200"></stop><stop offset="1" stop-color="#cd118c"></stop></linearGradient><linearGradient id="b" x1="-12.499" x2="52.238" y1="63.624" y2="4.282" xlink:href="#a"></linearGradient><linearGradient id="c" x1="-11.71" x2="53.026" y1="64.485" y2="5.143" xlink:href="#a"></linearGradient><linearGradient id="d" x1="-22.233" x2="42.504" y1="53.005" y2="-6.337" xlink:href="#a"></linearGradient><linearGradient id="e" x1="-23.458" x2="41.279" y1="51.669" y2="-7.672" xlink:href="#a"></linearGradient><linearGradient id="f" x1="-16.38" x2="48.356" y1="59.39" y2=".048" xlink:href="#a"></linearGradient><linearGradient id="g" x1="-20.469" x2="44.268" y1="54.93" y2="-4.412" xlink:href="#a"></linearGradient><linearGradient id="h" x1="-13.392" x2="51.345" y1="62.651" y2="3.309" xlink:href="#a"></linearGradient></defs><path fill="url(#a)" d="M28.465,54h-.744l-.773-2.316A1,1,0,0,0,26,51H24a1,1,0,0,0-.895.553l-.229.459-1.044-1.567a1,1,0,0,0-1.8.312L19.219,54H18v2h2a1,1,0,0,0,.97-.757l.452-1.807.746,1.119a.98.98,0,0,0,.894.443,1,1,0,0,0,.833-.551L24.618,53h.661l.773,2.316A1,1,0,0,0,27,56h2a1,1,0,0,0,.832-.445l4-6-1.664-1.11Z"></path><path fill="url(#b)" d="M62.53,22.73a1.006,1.006,0,0,0-.47-.6l-2.6-1.5A4.008,4.008,0,0,0,58,15.16a4.026,4.026,0,0,0-3.04-.4,3.956,3.956,0,0,0-2.42,1.87L42,34.88V21h5a1,1,0,0,0,1-1V9a5,5,0,0,0-5-5H7A5,5,0,0,0,2,9V59a1,1,0,0,0,1,1H37a5,5,0,0,0,5-5V50.88L56.46,25.82l1.74,1-3.5,6.07,1.73,1,4-6.93,2-3.47A1.007,1.007,0,0,0,62.53,22.73ZM42,6h1a3.009,3.009,0,0,1,3,3V19H42ZM40,55a3.009,3.009,0,0,1-3,3H4V9A3.009,3.009,0,0,1,7,6H40V38.34l-4.96,8.6a1.073,1.073,0,0,0-.13.38l-.9,7.56a.993.993,0,0,0,.49.99A1.009,1.009,0,0,0,35,56a1.029,1.029,0,0,0,.6-.2L40,52.51Zm-3.28-5.94,2.56,1.49L36.27,52.8Zm4.01.01-3.46-2,12.5-21.65,3.46,2Zm13.5-23.38-3.46-2,3.5-6.06a2,2,0,0,1,1.21-.94,2.06,2.06,0,0,1,1.52.2,2.008,2.008,0,0,1,.93,1.22,1.974,1.974,0,0,1-.2,1.52Zm4.97-.6-1.74-1,1-1.73,1.74,1Z"></path><path fill="url(#c)" d="M23,40a7.938,7.938,0,0,0-.905-3.681l2.612-2.612-1.414-1.414-2.36,2.36A7.986,7.986,0,1,0,23,40Zm-8,6a6,6,0,1,1,4.52-9.934L15,40.586l-3.293-3.293-1.414,1.414,4,4a1,1,0,0,0,1.414,0l4.88-4.88A5.988,5.988,0,0,1,15,46Z"></path><path fill="url(#d)" d="M11,16H34a1,1,0,0,0,1-1V9a1,1,0,0,0-1-1H11a1,1,0,0,0-1,1v6A1,1,0,0,0,11,16Zm1-6H33v4H12Z"></path><rect width="4" height="2" x="8" y="20" fill="url(#e)"></rect><rect width="21" height="2" x="15" y="20" fill="url(#f)"></rect><rect width="4" height="2" x="8" y="26" fill="url(#g)"></rect><rect width="21" height="2" x="15" y="26" fill="url(#h)"></rect></svg>