<svg xmlns="http://www.w3.org/2000/svg" xmlns:xlink="http://www.w3.org/1999/xlink" viewBox="0 0 64 64" id="hiring-employee"><defs><linearGradient id="a" x1="32" x2="32" y1="64" y2="-.577" gradientUnits="userSpaceOnUse"><stop offset="0" stop-color="#e93e3a"></stop><stop offset=".35" stop-color="#ed683c"></stop><stop offset=".7" stop-color="#f3903f"></stop><stop offset="1" stop-color="#fdc70c"></stop></linearGradient><linearGradient id="b" x1="31" x2="31" y1="64" y2="-.577" xlink:href="#a"></linearGradient><linearGradient id="c" x1="33" x2="33" y1="64" y2="-.577" xlink:href="#a"></linearGradient><linearGradient id="d" x1="18" x2="18" y1="64" y2="-.577" xlink:href="#a"></linearGradient><linearGradient id="e" x1="29" x2="29" y1="64" y2="-.577" xlink:href="#a"></linearGradient><linearGradient id="f" x1="28" x2="28" y1="64" y2="-.577" xlink:href="#a"></linearGradient><linearGradient id="g" x1="30" x2="30" y1="64" y2="-.577" xlink:href="#a"></linearGradient></defs><path fill="url(#a)" d="M56,48a2.934,2.934,0,0,0-1.47.39A3,3,0,0,0,52,47a3.06,3.06,0,0,0-1,.19V11a1,1,0,0,0-.25-.66l-7-8A.981.981,0,0,0,43,2H16a5,5,0,0,0-5,5V35.67L7.2,40.73A11.089,11.089,0,0,0,5,47.33V62H7V47.33a9.077,9.077,0,0,1,1.8-5.4L11,39v8.2L9.67,49.5l1.73,1,3-5.2a1.01,1.01,0,0,1,.61-.46.995.995,0,0,1,1.12,1.46l-3,5.2a1.014,1.014,0,0,0,.16,1.21l1.54,1.53A4,4,0,0,1,16,57.07V62h2V57.07A6.357,6.357,0,0,0,17.9,56H37.38l3.75,6.5,1.74-1L37.4,52.04a1.01,1.01,0,0,1,.37-1.37.99.99,0,0,1,1.36.37l2,3.46a1.022,1.022,0,0,0,1.13.47A1,1,0,0,0,43,54V40.94a.951.951,0,0,1,.99-.94A1,1,0,0,1,45,41V52a1,1,0,0,0,2,0V49a1,1,0,0,1,2,0v3a1,1,0,0,0,2,0V50a1,1,0,0,1,2,0v2a1,1,0,0,0,2,0V51a1,1,0,0,1,2,0V62h2V51A3.009,3.009,0,0,0,56,48ZM43,4.52,47.8,10H44a1,1,0,0,1-1-1Zm6,41.67A3.06,3.06,0,0,0,48,46a3,3,0,0,0-1,.17V41a3.022,3.022,0,0,0-3.06-3A2.945,2.945,0,0,0,41,40.94v9.33l-.13-.23a3,3,0,1,0-5.2,3l.56.96H17.15a5.666,5.666,0,0,0-.91-1.17l-.99-.99,2.62-4.54a3,3,0,0,0-3.38-4.39,2.921,2.921,0,0,0-1.49.93V7a3.009,3.009,0,0,1,3-3H41V9a3.009,3.009,0,0,0,3,3h5Z"></path><path fill="url(#b)" d="M34.33,16.2A3.965,3.965,0,0,0,35,14V12a4,4,0,0,0-8,0v2a3.965,3.965,0,0,0,.67,2.2A5,5,0,0,0,24,21v1a1,1,0,0,0,1,1H37a1,1,0,0,0,1-1V21A5,5,0,0,0,34.33,16.2ZM29,12a2,2,0,0,1,3.86-.73,14.822,14.822,0,0,0-2.25.81,16.575,16.575,0,0,1-1.61.61Zm4,1.31V14a2,2,0,0,1-3.86.73,14.822,14.822,0,0,0,2.25-.81A16.575,16.575,0,0,1,33,13.31ZM26,21a3.009,3.009,0,0,1,3-3h4a3.009,3.009,0,0,1,3,3Z"></path><rect width="24" height="2" x="21" y="27" fill="url(#c)"></rect><rect width="28" height="2" x="17" y="31" fill="url(#b)"></rect><rect width="2" height="2" x="17" y="27" fill="url(#d)"></rect><rect width="24" height="2" x="17" y="35" fill="url(#e)"></rect><rect width="22" height="2" x="17" y="39" fill="url(#f)"></rect><rect width="18" height="2" x="21" y="43" fill="url(#g)"></rect></svg>