<svg xmlns="http://www.w3.org/2000/svg" viewBox="0 0 25 25" id="recruitment"><circle cx="12.5" cy="10" r="1.5" fill="#16afd3"></circle><path fill="#16afd3" d="M14.5,15v1.5h-4V15a2,2,0,0,1,4,0Z"></path><path fill="#7992a5" d="M12.5,21A8.5,8.5,0,1,1,21,12.5,8.51,8.51,0,0,1,12.5,21Zm0-16A7.5,7.5,0,1,0,20,12.5,7.5,7.5,0,0,0,12.5,5Z"></path><path fill="#7992a5" d="M12.5 7a.5.5 0 0 1-.5-.5v-4a.5.5 0 0 1 1 0v4A.5.5 0 0 1 12.5 7zM22.5 13h-4a.5.5 0 0 1 0-1h4a.5.5 0 0 1 0 1zM12.5 23a.5.5 0 0 1-.5-.5v-4a.5.5 0 0 1 1 0v4A.5.5 0 0 1 12.5 23zM6.5 13h-4a.5.5 0 0 1 0-1h4a.5.5 0 0 1 0 1z"></path></svg>